<?xml version="1.0" encoding="iso-8859-1"?>
<!-- Generator: Adobe Illustrator 18.0.0, SVG Export Plug-In . SVG Version: 6.00 Build 0)  -->
<!DOCTYPE svg PUBLIC "-//W3C//DTD SVG 1.1//EN" "http://www.w3.org/Graphics/SVG/1.1/DTD/svg11.dtd">
<svg version="1.1" id="_x31_" xmlns="http://www.w3.org/2000/svg" xmlns:xlink="http://www.w3.org/1999/xlink" x="0px" y="0px"
	 viewBox="0 0 512 512" style="enable-background:new 0 0 512 512;" xml:space="preserve">
<g>
	<rect style="fill:#9CD1AB;" width="512" height="512"/>
	<g style="opacity:0.1;">
		<g>
			<g>
				<polygon style="fill:#231815;" points="512,270.54 512,512 248.165,512 122.625,386.46 375.295,133.835 				"/>
			</g>
		</g>
	</g>
	<g>
		<g>
			<path style="fill:#F5BF41;" d="M430.155,262.71c0,98.66-79.979,178.65-178.645,178.65c-98.667,0-178.65-79.99-178.65-178.65
				c0-98.67,79.983-178.65,178.65-178.65C350.175,84.06,430.155,164.04,430.155,262.71z"/>
			<g>
				<g>
					<path style="fill:#E9AE3B;" d="M388.165,307.035c-14.265,43.915-49.26,78.685-93.305,92.645
						c-4.85,1.54-7.535,6.72-5.995,11.565c1.536,4.845,6.715,7.53,11.561,5.99c49.755-15.795,89.115-54.905,105.255-104.51
						c1.575-4.835-1.075-10.03-5.91-11.605C394.935,299.55,389.74,302.2,388.165,307.035L388.165,307.035z"/>
				</g>
			</g>
			<g>
				<path style="fill:#F9D791;" d="M251.51,84.06c-98.667,0-178.65,79.98-178.65,178.65c0,57.785,27.46,109.13,70.015,141.785
					l250.42-250.42C360.64,111.52,309.295,84.06,251.51,84.06z"/>
				<g>
					<path style="fill:#FFFFFF;" d="M211.765,105.565c-56.58,14.33-101.311,58.365-116.645,114.54
						c-1.34,4.905,1.552,9.975,6.46,11.31c4.906,1.34,9.97-1.555,11.31-6.46c13.542-49.725,53.315-88.88,103.39-101.535
						c4.935-1.25,7.92-6.26,6.67-11.185C221.705,107.3,216.695,104.315,211.765,105.565z"/>
				</g>
			</g>
		</g>
		<polygon style="fill:#E94C1A;" points="251.51,208.06 267.1,247.02 308.965,249.81 276.73,276.675 287.02,317.35 251.51,295 
			216,317.35 226.285,276.675 194.05,249.81 235.92,247.02 		"/>
	</g>
</g>
</svg>
